HIERARCHY
ROOT hip
{
	OFFSET 0.000000 0.000000 0.000000 
	CHANNELS 6 Xposition Yposition Zposition Xrotation Zrotation Yrotation
	JOINT abdomen
	{
		OFFSET 0.000000 3.402643 0.000000 
		CHANNELS 3 Xrotation Zrotation Yrotation
		JOINT chest
		{
			OFFSET 0.000000 8.438565 -0.680529 
			CHANNELS 3 Xrotation Zrotation Yrotation
			JOINT neck
			{
				OFFSET 0.000000 10.207942 -0.272212 
				CHANNELS 3 Xrotation Zrotation Yrotation
				JOINT head
				{
					OFFSET 0.000000 3.130431 0.000000 
					CHANNELS 3 Xrotation Zrotation Yrotation
					End Site
					{
						OFFSET 0.000000 3.130435 0.000000 
					}
				}
			}
			JOINT lCollar
			{
				OFFSET 3.470700 6.669187 -0.816635 
				CHANNELS 3 Yrotation Zrotation Xrotation
				JOINT lShldr
				{
					OFFSET 3.198488 0.000000 0.000000 
					CHANNELS 3 Zrotation Yrotation Xrotation
					JOINT lForeArm
					{
						OFFSET 10.139888 0.000000 0.000000 
						CHANNELS 3 Yrotation Zrotation Xrotation
						JOINT lHand
						{
							OFFSET 8.370511 0.000000 0.000000 
							CHANNELS 3 Zrotation Yrotation Xrotation
							End Site
							{
								OFFSET 4.083176 0.000000 0.000000 
							}
						}
					}
				}
			}
			JOINT rCollar
			{
				OFFSET -3.470700 6.669187 -0.816635 
				CHANNELS 3 Yrotation Zrotation Xrotation
				JOINT rShldr
				{
					OFFSET -3.198488 0.000000 0.000000 
					CHANNELS 3 Zrotation Yrotation Xrotation
					JOINT rForeArm
					{
						OFFSET -10.139888 0.000000 0.000000 
						CHANNELS 3 Yrotation Zrotation Xrotation
						JOINT rHand
						{
							OFFSET -8.370511 0.000000 0.000000 
							CHANNELS 3 Zrotation Yrotation Xrotation
							End Site
							{
								OFFSET -4.083176 0.000000 0.000000 
							}
						}
					}
				}
			}
		}
	}
	JOINT lThigh
	{
		OFFSET 5.308129 -1.633274 1.361059 
		CHANNELS 3 Xrotation Zrotation Yrotation
		JOINT lShin
		{
			OFFSET -2.041588 -20.007561 0.000000 
			CHANNELS 3 Xrotation Zrotation Yrotation
			JOINT lFoot
			{
				OFFSET 0.000000 -19.190928 -1.224953 
				CHANNELS 3 Xrotation Yrotation Zrotation
				End Site
				{
					OFFSET 0.000000 -2.449906 4.627600 
				}
			}
		}
	}
	JOINT rThigh
	{
		OFFSET -5.308129 -1.633274 1.361059 
		CHANNELS 3 Xrotation Zrotation Yrotation
		JOINT rShin
		{
			OFFSET 2.041588 -20.007561 0.000000 
			CHANNELS 3 Xrotation Zrotation Yrotation
			JOINT rFoot
			{
				OFFSET 0.000000 -19.190928 -1.224953 
				CHANNELS 3 Xrotation Yrotation Zrotation
				End Site
				{
					OFFSET 0.000000 -2.449906 4.627600 
				}
			}
		}
	}
}
MOTION
Frames: 13
Frame Time: 0.066667
-0.060962 52.671715 -0.086285 0.432586 0.000000 0.000000 2.583333 0.000000 0.000000 -0.287037 0.000000 0.000000 -2.296296 0.000000 0.000000 -1.291667 0.000000 0.000000 2.021920 -1.528273 -0.063351 -78.110664 5.089880 15.991600 -41.260048 -8.691972 -7.171721 0.085234 -0.917925 2.472030 -2.021920 2.685681 -0.063351 76.829346 -5.064861 15.445304 50.463062 10.183386 -5.451813 -2.565352 3.087934 -0.140079 -13.322116 3.988950 -1.544060 25.457567 -3.587919 -1.853563 -12.963426 0.374818 -0.631267 -13.201650 -4.319178 1.018988 25.345114 3.540295 1.563789 -13.027343 0.006927 0.586721 
-0.134563 51.489380 -0.556231 0.952758 0.000000 0.000000 5.702302 0.000000 0.000000 -0.633589 0.000000 0.000000 -5.068714 0.000000 0.000000 -2.851151 0.000000 0.000000 2.021920 3.496733 -0.063351 -87.565529 -1.020136 15.991600 -63.781467 -7.966349 -16.008816 -7.019082 -2.159139 5.244447 -2.021920 -0.986681 -0.063351 84.855576 1.068033 14.777601 83.446808 11.220440 -12.295775 1.598447 6.804264 -0.512945 -19.252275 3.687399 -3.552858 34.895874 -3.758698 -2.820457 -17.120665 -0.539468 -0.501110 -19.164904 -4.099480 2.110764 34.921043 3.692970 2.540716 -17.218472 2.028770 0.248535 
-0.212384 50.464592 -1.021090 1.482010 0.000000 0.000000 9.000000 0.000000 0.000000 -1.000000 0.000000 0.000000 -8.000000 0.000000 0.000000 -4.500000 0.000000 0.000000 2.021920 8.809690 -0.063351 -95.437965 -9.521230 15.991600 -86.515602 -7.326955 -25.352301 -14.530500 -6.835902 8.175730 -2.021920 -5.309690 -0.063351 92.382004 9.521230 13.991600 110.859032 12.071141 -20.352301 6.530510 12.673100 -0.824266 -23.884623 3.197276 -5.380493 41.584789 -3.870799 -3.528043 -19.828484 -1.860829 -0.461851 -23.698513 -3.758705 3.189402 41.502121 3.788871 3.230130 -19.839130 4.721101 0.015117 
-0.290700 49.818546 -1.434166 1.979191 0.000000 0.000000 12.318713 0.000000 0.000000 -1.368746 0.000000 0.000000 -10.949966 0.000000 0.000000 -6.159357 0.000000 0.000000 2.021920 14.156509 -0.063351 -99.657478 -21.566544 15.991599 -107.042473 -6.910847 -34.755322 -22.089788 -16.974361 11.125688 -2.021920 -10.277205 -0.063351 98.183098 21.062662 13.088415 125.444496 12.500116 -29.609936 12.399732 21.630966 -0.995789 -26.893723 2.755090 -6.776361 45.184116 -3.983866 -3.904574 -20.997335 -3.713659 -0.541868 -26.671448 -3.471279 4.148924 45.116936 3.944904 3.641485 -21.010050 8.212359 -0.135377 
-0.364468 49.417767 -1.793734 2.428386 0.000000 0.000000 15.444704 0.000000 0.000000 -1.716078 0.000000 0.000000 -13.728624 0.000000 0.000000 -7.722352 0.000000 0.000000 2.021920 19.192831 -0.063351 -101.052162 -34.794300 15.991598 -122.000877 -6.703512 -43.612293 -29.210098 -27.802208 13.904334 -2.021920 -14.515675 -0.063351 101.831879 31.745846 12.317785 130.160156 12.614258 -37.508888 18.416512 30.288078 -1.080899 -28.999664 2.384282 -7.870165 47.245583 -4.082120 -4.138345 -21.469425 -5.696473 -0.640893 -28.745152 -3.214999 4.934637 47.214603 4.093225 3.888779 -21.526955 11.239177 -0.220715 
-0.424769 49.135860 -2.081162 2.791370 0.000000 0.000000 18.000000 0.000000 0.000000 -2.000000 0.000000 0.000000 -16.000000 0.000000 0.000000 -9.000000 0.000000 0.000000 2.021920 23.309700 -0.063351 -101.174728 -46.021198 15.991600 -127.794312 -6.652537 -50.852299 -35.030499 -32.847534 16.175699 -2.021920 -16.309700 -0.063351 103.100998 36.445702 11.991600 130.516006 12.606022 -40.852299 23.442301 34.173100 -1.133650 -30.493708 2.098840 -8.730701 48.534306 -4.193120 -4.248697 -21.703072 -7.396513 -0.755199 -30.217646 -2.915479 5.497854 48.436428 4.144450 4.025856 -21.642155 12.237210 -0.289348 
-0.419006 48.983185 -2.295920 3.079140 0.000000 0.000000 18.000000 0.000000 0.000000 -2.000000 0.000000 0.000000 -16.000000 0.000000 0.000000 -9.000000 0.000000 0.000000 2.021920 23.309700 -0.063351 -101.180168 -45.914230 15.991600 -127.810440 -6.665517 -50.852299 -31.412901 -32.843208 16.175699 -2.021920 -16.309700 -0.063351 103.105644 36.445473 11.991600 130.532776 12.598991 -40.852299 18.971701 34.184456 -1.838690 -31.517317 1.801676 -9.512529 49.180000 -4.203861 -4.330221 -21.670719 -6.565930 -0.896636 -31.276728 -2.563901 6.063024 49.083641 4.124053 4.103238 -21.557659 11.549989 -0.294859 
-0.413243 48.830502 -2.510678 3.366910 0.000000 0.000000 18.000000 0.000000 0.000000 -2.000000 0.000000 0.000000 -16.000000 0.000000 0.000000 -9.000000 0.000000 0.000000 2.021920 23.309700 -0.063351 -101.185608 -45.807266 15.991600 -127.826569 -6.678497 -50.852299 -35.030499 -32.838882 6.175700 -2.021920 -16.309700 -0.063351 103.110291 36.445244 11.991600 130.549545 12.591961 -40.852299 23.265800 34.195812 -16.155199 -32.468918 1.499646 -10.291219 49.786942 -4.200897 -4.411592 -21.671762 -5.736783 -1.059713 -32.211529 -2.216232 6.618924 49.672462 4.106166 4.156505 -21.509144 10.895816 -0.288691 
-0.407481 48.677822 -2.725436 3.654680 0.000000 0.000000 18.000000 0.000000 0.000000 -2.000000 0.000000 0.000000 -16.000000 0.000000 0.000000 -9.000000 0.000000 0.000000 2.021920 23.309700 -0.063351 -101.191048 -45.700298 15.991600 -127.842697 -6.691477 -50.852299 -31.232000 -32.834557 16.175699 -2.021920 -16.309700 -0.063351 103.114937 36.445015 11.991600 130.566315 12.584930 -40.852299 19.030500 34.207169 -1.824270 -33.444542 1.192174 -11.041462 50.394234 -4.196861 -4.483042 -21.651052 -4.924406 -1.235125 -33.210190 -1.861936 7.171846 50.279854 4.098333 4.225676 -21.432674 10.224701 -0.268272 
-0.413835 48.588898 -2.864071 3.857847 0.000000 -1.614204 18.023827 0.000000 0.000000 -1.990469 0.000000 0.000000 -16.000000 0.000000 0.000000 -9.019066 0.000000 0.000000 2.021920 23.309700 -0.063351 -101.196487 -45.624924 15.991600 -127.858826 -6.704457 -50.852299 -35.030499 -32.830231 6.175680 -2.021920 -16.309700 -0.063351 103.119583 36.444786 11.991600 130.583084 12.577900 -40.852299 23.030500 34.218525 -15.824300 -33.905163 1.187754 -11.627220 50.785717 -4.206690 -4.522366 -21.802086 -2.801687 -1.389009 -34.141438 -1.486516 7.542891 50.739536 4.113885 4.273209 -21.177263 11.335146 -0.248380 
-0.429548 48.523678 -2.984509 4.000000 0.000000 -5.456710 18.092699 0.000000 0.000000 -1.962930 0.000000 0.000000 -16.000000 0.000000 0.000000 -9.074150 0.000000 0.000000 2.021920 23.309700 -0.063351 -101.201927 -45.558594 15.991600 -127.874954 -6.717437 -50.852299 -30.689301 -32.825905 16.175699 -2.021920 -16.309700 -0.063351 103.124229 36.444557 11.991600 130.599854 12.570869 -40.852299 19.030500 34.229881 -1.824300 -34.064262 1.457869 -12.235111 51.461494 -4.209280 -4.593777 -22.428879 1.407201 -1.566822 -35.018654 -0.733882 7.882010 50.887131 4.103272 4.281409 -20.546387 14.491805 -0.321035 
-0.440301 48.449318 -3.118470 4.045190 0.000000 -10.027363 18.202692 0.000000 0.000000 -1.918962 0.000000 0.000000 -15.999999 0.000000 0.000000 -9.162081 0.000000 -8.511493 2.021920 23.309698 -0.063351 -101.207367 -45.500763 15.991599 -127.891083 -6.730417 -50.852295 -35.030499 -32.821579 6.175700 -2.021920 -16.309700 -0.063351 103.128876 36.444328 11.991600 130.616623 12.563839 -40.852299 23.030500 34.241238 -15.824300 -33.987518 1.761497 -12.868383 52.147995 -4.188152 -4.665075 -23.159750 6.375578 -1.730022 -35.685680 0.038297 7.863154 50.926563 4.099278 4.283075 -19.826046 18.655437 -0.520628 
-0.446466 48.366524 -3.264575 4.027848 0.000000 -13.826010 18.349754 0.000000 0.000000 -1.860151 0.000000 0.000000 -15.999998 0.000000 0.000000 -9.279695 0.000000 -24.499674 2.021920 23.309698 -0.063351 -101.212799 -45.451000 15.991599 -127.907211 -6.743397 -50.852295 -31.051100 -32.817253 16.175699 -2.021920 -16.309700 -0.063351 103.133522 36.444099 11.991600 130.633392 12.556808 -40.852299 19.030500 34.252594 -1.824300 -33.894417 1.938024 -13.480551 52.824055 -4.183045 -4.734088 -23.822697 10.597246 -1.831520 -36.279888 0.724764 7.834577 51.024887 4.093409 4.289073 -19.121967 22.085793 -0.765999 
